<?xml version="1.0" standalone="no"?><!DOCTYPE svg PUBLIC "-//W3C//DTD SVG 1.1//EN" "http://www.w3.org/Graphics/SVG/1.1/DTD/svg11.dtd"><svg t="1557808770121" class="icon" style="" viewBox="0 0 1024 1024" version="1.1" xmlns="http://www.w3.org/2000/svg" p-id="14814" xmlns:xlink="http://www.w3.org/1999/xlink" width="200" height="200"><defs><style type="text/css"></style></defs><path d="M713.42132 337.86802h-402.84264C268.345178 337.86802 235.857868 305.380711 235.857868 263.147208v-188.426396C235.857868 32.48731 271.593909 0 310.57868 0H710.172589c42.233503 0 74.720812 32.48731 74.720812 74.720812v188.426396c3.248731 42.233503-32.48731 74.720812-71.472081 74.720812" fill="#5096F5" p-id="14815"></path><path d="M349.563452 337.86802H450.274112V0H349.563452v337.86802z m227.411167 0H677.685279V0H576.974619v337.86802z" fill="#FFFFFF" p-id="14816"></path><path d="M512 1023.350254c224.162437 0 406.091371-181.928934 406.091371-406.091371S736.162437 211.167513 512 211.167513 105.908629 393.096447 105.908629 617.258883s181.928934 406.091371 406.091371 406.091371z" fill="#FCC376" p-id="14817"></path><path d="M804.385787 617.258883c0-162.436548-129.949239-292.385787-292.385787-292.385787s-292.385787 129.949239-292.385787 292.385787 129.949239 292.385787 292.385787 292.385787 292.385787-129.949239 292.385787-292.385787z" fill="#FCC376" p-id="14818"></path><path d="M804.385787 617.258883c0-162.436548-129.949239-292.385787-292.385787-292.385787s-292.385787 129.949239-292.385787 292.385787 129.949239 292.385787 292.385787 292.385787 292.385787-129.949239 292.385787-292.385787z m32.487309 0c0 178.680203-146.192893 324.873096-324.873096 324.873097s-324.873096-146.192893-324.873096-324.873097 146.192893-324.873096 324.873096-324.873096 324.873096 146.192893 324.873096 324.873096z" fill="#E19547" p-id="14819"></path><path d="M380.751269 720.568528l78.619289-18.192893c8.446701 40.284264 31.837563 60.426396 69.522843 60.426395 38.984772 0 59.126904-19.492386 60.426396-58.477157 0-37.685279-28.588832-56.527919-85.766498-56.527919h-34.436548v-60.426396h31.187818c53.279188 0 80.568528-17.543147 80.568527-53.279187-1.299492-33.786802-18.84264-51.979695-53.279187-53.279188-35.086294 2.598985-56.527919 22.741117-63.675127 60.426396l-74.720812-16.243655c16.893401-65.624365 64.974619-99.411168 144.243654-100.71066 79.269036 2.598985 121.502538 35.086294 126.050762 98.761421 1.299492 47.431472-24.690355 77.969543-78.61929 91.614213 54.57868 9.746193 84.467005 40.93401 89.664975 92.913706-3.898477 70.822335-51.979695 107.208122-144.243655 109.807107-80.568528 3.248731-128.649746-28.588832-145.543147-96.812183z" fill="#E19547" p-id="14820"></path><path d="M367.756345 707.573604l78.61929-18.192893c8.446701 40.284264 31.837563 60.426396 69.522842 60.426396 38.984772 0 59.126904-19.492386 60.426396-58.477158 0-37.685279-28.588832-56.527919-85.766497-56.527919h-34.436549v-60.426395h31.187818c53.279188 0 80.568528-17.543147 80.568528-53.279188-1.299492-33.786802-18.84264-51.979695-53.279188-53.279188-35.086294 2.598985-56.527919 22.741117-63.675127 60.426396l-74.720812-16.243655c16.893401-65.624365 64.974619-99.411168 144.243655-100.71066 79.269036 2.598985 121.502538 35.086294 126.050761 98.761421 1.299492 47.431472-24.690355 77.969543-78.619289 91.614214 54.57868 9.746193 84.467005 40.93401 89.664974 92.913705-3.898477 70.822335-51.979695 107.208122-144.243655 109.807107-80.568528 3.248731-128.649746-28.588832-145.543147-96.812183z" fill="#FFFFFF" p-id="14821"></path></svg>