<?xml version="1.0" standalone="no"?><!DOCTYPE svg PUBLIC "-//W3C//DTD SVG 1.1//EN" "http://www.w3.org/Graphics/SVG/1.1/DTD/svg11.dtd"><svg t="1557808736168" class="icon" style="" viewBox="0 0 1024 1024" version="1.1" xmlns="http://www.w3.org/2000/svg" p-id="13906" xmlns:xlink="http://www.w3.org/1999/xlink" width="200" height="200"><defs><style type="text/css"></style></defs><path d="M713.42132 338.517766h-402.84264c-42.233503 0-74.720812-32.48731-74.720812-74.720812v-188.426396C235.857868 33.137056 271.593909 0.649746 310.57868 0.649746H710.172589c42.233503 0 74.720812 32.48731 74.720812 74.720812v188.426396c3.248731 42.233503-32.48731 74.720812-71.472081 74.720812" fill="#5096F5" p-id="13907"></path><path d="M349.563452 338.517766H450.274112V0.649746H349.563452v337.86802z m227.411167 0H677.685279V0.649746H576.974619v337.86802z" fill="#FFFFFF" p-id="13908"></path><path d="M512 1024c224.162437 0 406.091371-181.928934 406.091371-406.091371S736.162437 211.817259 512 211.817259 105.908629 393.746193 105.908629 617.908629s181.928934 406.091371 406.091371 406.091371z" fill="#FEE751" p-id="13909"></path><path d="M804.385787 617.908629c0-162.436548-129.949239-292.385787-292.385787-292.385786s-292.385787 129.949239-292.385787 292.385786 129.949239 292.385787 292.385787 292.385787 292.385787-129.949239 292.385787-292.385787z" fill="#FFDE3A" p-id="13910"></path><path d="M804.385787 617.908629c0-162.436548-129.949239-292.385787-292.385787-292.385786s-292.385787 129.949239-292.385787 292.385786 129.949239 292.385787 292.385787 292.385787 292.385787-129.949239 292.385787-292.385787z m32.487309 0c0 178.680203-146.192893 324.873096-324.873096 324.873097s-324.873096-146.192893-324.873096-324.873097 146.192893-324.873096 324.873096-324.873096 324.873096 146.192893 324.873096 324.873096z" fill="#FFBC00" p-id="13911"></path><path d="M493.807107 812.182741V537.989848c-35.086294 27.939086-75.370558 49.380711-120.852792 63.675127V536.040609c65.624365-26.639594 111.756345-63.025381 137.096446-107.857868h60.426396V812.182741H493.807107z" fill="#FFBC00" p-id="13912"></path><path d="M480.812183 799.187817V524.994924c-35.086294 27.939086-75.370558 49.380711-120.852792 63.675127V523.045685c65.624365-26.639594 111.756345-63.025381 137.096447-107.857868h60.426396V799.187817H480.812183z" fill="#FFFFFF" p-id="13913"></path></svg>