<?xml version="1.0" standalone="no"?><!DOCTYPE svg PUBLIC "-//W3C//DTD SVG 1.1//EN" "http://www.w3.org/Graphics/SVG/1.1/DTD/svg11.dtd"><svg t="1557805706121" class="icon" style="" viewBox="0 0 1024 1024" version="1.1" xmlns="http://www.w3.org/2000/svg" p-id="11584" xmlns:xlink="http://www.w3.org/1999/xlink" width="200" height="200"><defs><style type="text/css"></style></defs><path d="M512 512m-488 0a488 488 0 1 0 976 0 488 488 0 1 0-976 0Z" fill="#EEEEEE" p-id="11585"></path><path d="M896.72 800.72C804.8 710.72 651.2 679.92 651.2 679.92l-244.8-4.8s-208.96 63.84-268.8 100.8c-7.6 4.72-14.88 11.92-21.68 21.04C204.56 919.84 348.88 1000 512 1000c159.2 0 300.48-76.24 389.6-194.16-1.6-1.76-3.28-3.52-4.88-5.12z" fill="#372E2B" p-id="11586"></path><path d="M896.72 800.72c-5.6-5.52-11.52-10.8-17.52-15.92 0.4 12.8 0.88 28.88 1.36 46.88 7.28-8.4 14.32-17.04 21.04-25.92-1.6-1.68-3.28-3.44-4.88-5.04zM726.72 701.84c-13.68-4.88-26.16-8.88-36.96-12 0.4 21.6 0.24 107.12-24.16 162.88-29.52 67.68-91.2 96-91.2 96l-28.8-9.6c-144.88-39.44-198.16-231.76-201.44-244.16-13.04 4.24-27.36 9.04-42.32 14.16 13.36 49.68 51.44 162.88 133.36 220.4 72.32 50.8 144 57.6 144 57.6s168.64-37.52 147.52-285.28z" fill="#26201E" p-id="11587"></path><path d="M689.76 689.84s-39.92-14.16-92.88-16c-82.08-2.8-190.4-3.6-190.4-3.6l-62.4 24s51.92 204.08 201.6 244.8l28.8 9.6s61.68-28.32 91.2-96c27.92-64.16 24.08-162.8 24.08-162.8z" fill="#FFFFFF" p-id="11588"></path><path d="M622.4 631.92H536c-37.76-14.48-109.12-78-115.2-86.4-1.84-2.48-3.84-7.36-5.76-12.96L406.4 671.84l163.2 108.88L648 720V606.4c-14.32 14.88-25.6 25.52-25.6 25.52z" fill="#FFA5A3" p-id="11589"></path><path d="M622.4 631.92H536c-37.76-14.48-109.12-78-115.2-86.4-1.84-2.48-3.84-7.36-5.76-12.96l-8.56 140.8 110.32 68.96L648 618.4v-12c-14.32 14.88-25.6 25.52-25.6 25.52z" fill="#FF9D9B" p-id="11590"></path><path d="M411.2 489.28s-7.36-69.04-9.6-72c-2.24-2.96-6.72-57.04-43.2-52.8-36.48 4.24-39.76 24.88-38.4 43.2 1.36 18.32 16.96 77.92 67.2 86.4 50.24 8.48 24-4.8 24-4.8z m360-92.56c-4.08-21.92-22-29.6-38.4-28.8-12.64 0.64-14.4 28.8-14.4 28.8s-42.56 115.6 0 91.2c52.4-30 56.72-70.08 52.8-91.2z" fill="#F7A9AE" p-id="11591"></path><path d="M563.52 779.52l-73.12 68.32s-32.16-41.84-54.4-88.8c-13.84-29.2-22.88-69.2-27.04-85.6l-3.92-2.48s10.08 55.76 30 97.68c22.4 47.36 54.96 89.68 54.96 89.68l79.92-74.72-6.4-4.08z m88.88-90.8l-0.4 0.48c0.72 10.88 1.36 30.4-0.8 53.12-3.84 41.36-14.4 91.2-14.4 91.2l-62.16-53.28-4.64 5.44 67.84 58.16s10.64-50.4 14.56-92.08c3.36-35.36 0-63.04 0-63.04z" fill="#E5E5E5" p-id="11592"></path><path d="M363.6 397.44c-6.64 9.6-15.2 46.16 31.52 61.04 29.2 9.28-7.6-62.16-7.6-62.16s-17.28-8.4-23.92 1.12z m369.2-0.72c-8.16-0.96-19.2 4.8-19.2 4.8v48s2.56 20.32 24-19.2c12.24-22.64 5.44-32.4-4.8-33.6z" fill="#FA7D8D" p-id="11593"></path><path d="M718.4 329.52c-1.36-20.16-264-67.2-264-67.2s-54.08 133.36-52.8 163.2c1.28 29.84 4.8 76.8 4.8 76.8s8.32 34.8 14.4 43.2c6.08 8.4 77.44 71.92 115.2 86.4h86.4s64.08-60.24 81.6-96c17.6-35.84 15.76-186.32 14.4-206.4z" fill="#FFB8B8" p-id="11594"></path><path d="M480.8 459.28c-14.56 0-26.4 5.36-26.4 12s11.84 12 26.4 12c14.56 0 26.4-5.36 26.4-12s-11.84-12-26.4-12z" fill="#FD9EA3" p-id="11595"></path><path d="M656 471.28a26.4 12 0 1 0 52.8 0 26.4 12 0 1 0-52.8 0Z" fill="#FD9EA3" p-id="11596"></path><path d="M732.8 310.32c1.28-5.04-22.4-4.8-22.4-4.8l8 86.4s0.4 18.08 9.6-9.6 3.52-66.96 4.8-72z" fill="#27211F" p-id="11597"></path><path d="M732.8 223.92c-34.08-39.12-67.68-99.92-187.2-105.6-125.28-5.92-139.2 72-139.2 72s-47.04 20.64-62.4 57.6c-20 48-9.6 124.8-9.6 124.8s30.88-18.96 43.2 0c17.84 27.44 19.2 86.4 19.2 86.4s8.24 3.2 14.4-4.8c4.8-6.24 5.28-74.32 9.6-96 19.76-98.72 116.24-66.96 115.2-67.2 25.28 6.08 37.84 15.36 72 28.8 48 18.88 121.28 27.04 171.2-40 10.64-14.32-10.8-15.12-46.4-56z" fill="#372E2B" p-id="11598"></path><path d="M464 271.92c-5.2-61.68-57.6-76.8-57.6-76.8s-2.56-0.64-7.36-1.12c-13.84 7.44-43.44 26-55.04 53.92-20 48-9.6 124.8-9.6 124.8s30.88-18.96 43.2 0c15.04 23.2 18.4 68.64 19.04 82.32l4.64 3.2c2.8-0.72 6.4-1.92 10-3.92 6.88-3.84 5.44-74.32 9.6-96 6.8-35.44 24.08-54.16 43.44-63.68 0.24-8.32 0.24-16.08-0.32-22.72z" fill="#27211E" p-id="11599"></path><path d="M509.6 392.08c-9.28 0-16.8 10.72-16.8 24s7.52 24 16.8 24 16.8-10.72 16.8-24-7.52-24-16.8-24z m148.8 0c-9.28 0-16.8 10.72-16.8 24s7.52 24 16.8 24 16.8-10.72 16.8-24-7.52-24-16.8-24z" fill="#362E2B" p-id="11600"></path><path d="M606.32 506.72c-0.4 0-0.8-0.08-1.2-0.16l-30.72-7.6a4.88 4.88 0 0 1-3.6-5.92 4.88 4.88 0 0 1 5.92-3.6l27.12 6.64c2.96-10.4-3.76-43.76-12.64-72-0.8-2.56 0.64-5.28 3.2-6.16 2.64-0.8 5.36 0.64 6.16 3.2 5.12 16.4 21.04 70.8 9.36 83.84-0.88 1.2-2.16 1.76-3.6 1.76zM584.56 558.96c-6.48 0-13.92-0.56-22.16-2-20.96-3.68-47.68-27.12-48.8-28.08a4.84 4.84 0 0 1-0.4-6.88c1.76-2 4.88-2.24 6.88-0.4 0.24 0.24 25.84 22.64 44.08 25.84 33.92 5.92 50.8-4.24 50.96-4.32a4.888 4.888 0 0 1 5.28 8.24c-0.8 0.24-12.56 7.6-35.84 7.6z" fill="#A44A2F" p-id="11601"></path><path d="M542.88 375.76a4 4 0 0 1-2.96-1.28c-0.16-0.16-15.84-16.64-41.36-18.8-21.84-1.84-34.72 11.68-34.8 11.76-1.52 1.6-4 1.68-5.68 0.16-1.6-1.52-1.68-4-0.16-5.68 0.64-0.64 15.68-16.48 41.36-14.32 28.64 2.4 45.76 20.48 46.48 21.28 1.52 1.6 1.44 4.16-0.24 5.68-0.64 0.8-1.68 1.2-2.64 1.2zM621.68 375.12c-0.96 0-1.92-0.32-2.72-1.04-1.6-1.52-1.76-4-0.32-5.68 0.8-0.88 19.2-20.72 40.08-19.44 25.44 1.6 38.16 15.68 38.64 16.24 1.44 1.68 1.28 4.16-0.32 5.68-1.68 1.44-4.16 1.28-5.6-0.32-0.08-0.16-11.2-12.24-33.2-13.6-17.28-1.2-33.52 16.64-33.68 16.88-0.64 0.8-1.76 1.28-2.88 1.28z" fill="#150006" p-id="11602"></path><path d="M545.6 939.12l28.8 9.6s14.56-6.72 32.88-21.36l-18.48-55.44 9.6-94.4-57.6-6.4-9.6 33.6 24 67.2-9.6 67.2z" fill="#27211F" p-id="11603"></path><path d="M406.4 670.32s10 47.28 29.68 88.8c22.24 46.96 54.4 88.8 54.4 88.8L568 774.4 406.4 670.32zM651.2 679.92L569.6 774.08l67.2 59.44s10.56-49.84 14.4-91.2c3.28-34.96 0-62.4 0-62.4z" fill="#FFFFFF" p-id="11604"></path></svg>