<?xml version="1.0" standalone="no"?><!DOCTYPE svg PUBLIC "-//W3C//DTD SVG 1.1//EN" "http://www.w3.org/Graphics/SVG/1.1/DTD/svg11.dtd"><svg t="1557808705926" class="icon" style="" viewBox="0 0 1024 1024" version="1.1" xmlns="http://www.w3.org/2000/svg" p-id="12770" xmlns:xlink="http://www.w3.org/1999/xlink" width="200" height="200"><defs><style type="text/css"></style></defs><path d="M713.42132 338.517766h-402.84264c-42.233503 0-74.720812-32.48731-74.720812-74.720812v-188.426396C235.857868 33.137056 271.593909 0.649746 310.57868 0.649746H710.172589c42.233503 0 74.720812 32.48731 74.720812 74.720812v188.426396c3.248731 42.233503-32.48731 74.720812-71.472081 74.720812" fill="#5096F5" p-id="12771"></path><path d="M349.563452 338.517766H450.274112V0.649746H349.563452v337.86802z m227.411167 0H677.685279V0.649746H576.974619v337.86802z" fill="#FFFFFF" p-id="12772"></path><path d="M512 1024c224.162437 0 406.091371-181.928934 406.091371-406.091371S736.162437 211.817259 512 211.817259 105.908629 393.746193 105.908629 617.908629s181.928934 406.091371 406.091371 406.091371z" fill="#DFDFDD" p-id="12773"></path><path d="M804.385787 617.908629c0-162.436548-129.949239-292.385787-292.385787-292.385786s-292.385787 129.949239-292.385787 292.385786 129.949239 292.385787 292.385787 292.385787 292.385787-129.949239 292.385787-292.385787z" fill="#DBDBDB" p-id="12774"></path><path d="M804.385787 617.908629c0-162.436548-129.949239-292.385787-292.385787-292.385786s-292.385787 129.949239-292.385787 292.385786 129.949239 292.385787 292.385787 292.385787 292.385787-129.949239 292.385787-292.385787z m32.487309 0c0 178.680203-146.192893 324.873096-324.873096 324.873097s-324.873096-146.192893-324.873096-324.873097 146.192893-324.873096 324.873096-324.873096 324.873096 146.192893 324.873096 324.873096z" fill="#C1C2BD" p-id="12775"></path><path d="M465.86802 743.959391h186.477158v62.375634H372.304569v-47.431472c29.238579-44.832487 67.573604-85.766497 115.005076-122.152284 61.076142-44.832487 89.015228-79.269036 83.817259-102.659898-1.299492-33.786802-20.791878-51.979695-58.477158-53.279188-36.385787 0-58.477157 22.091371-65.624365 65.624365l-73.42132-14.944162c14.944162-75.370558 64.324873-113.055838 150.09137-113.055838C602.964467 421.035533 645.19797 456.771574 651.695431 526.294416c4.548223 48.730964-24.040609 91.614213-85.766497 128-40.284264 27.939086-73.42132 57.827411-100.060914 89.664975z" fill="#C1C2BD" p-id="12776"></path><path d="M452.873096 730.964467h186.477158v62.375635H359.309645v-47.431473c29.238579-44.832487 67.573604-85.766497 115.005076-122.152284 61.076142-44.832487 89.015228-79.269036 83.817259-102.659898-1.299492-33.786802-20.791878-51.979695-58.477158-53.279188-36.385787 0-58.477157 22.091371-65.624365 65.624365l-73.42132-14.294416c14.944162-75.370558 64.324873-113.055838 150.091371-113.055837 79.269036 2.598985 121.502538 38.335025 128 107.857868 4.548223 48.730964-24.040609 91.614213-85.766498 128-40.284264 27.28934-73.42132 57.177665-100.060914 89.015228z" fill="#FFFFFF" p-id="12777"></path></svg>