<?xml version="1.0" standalone="no"?><!DOCTYPE svg PUBLIC "-//W3C//DTD SVG 1.1//EN" "http://www.w3.org/Graphics/SVG/1.1/DTD/svg11.dtd"><svg t="1557805690303" class="icon" style="" viewBox="0 0 1024 1024" version="1.1" xmlns="http://www.w3.org/2000/svg" p-id="10585" xmlns:xlink="http://www.w3.org/1999/xlink" width="200" height="200"><defs><style type="text/css"></style></defs><path d="M512 512m-480 0a480 480 0 1 0 960 0 480 480 0 1 0-960 0Z" fill="#EEEEEE" p-id="10586"></path><path d="M834.48 811.84c-44.16-34.24-40.16-35.28-56.16-129.28-14.56-85.76-13.92-124.08-25.76-186.48-9.68-51.2 20.64-114.32-0.8-228.88S627.6 147.76 627.6 147.76s-11.68-8.48-19.44-13.04c-6.24-3.68-14-6.08-14-6.08-205.28-43.28-277.44 121.44-281.84 214.96-9.28 197.2-27.52 155.28-30.64 283.92-1.76 74.08-49.52 186.88-49.52 186.88s646.48 31.68 602.32-2.56z" fill="#63244E" p-id="10587"></path><path d="M360.08 386.64c-12.4 16.8-17.52 74.32 4.8 90.8 22.24 16.4 52.56 28.64 52.56 28.64l-19.12-124.24s-25.84-12-38.24 4.8z m386.96-14.32c-4.64-6.56-28.64 4.8-28.64 4.8l-9.52 124.24 33.44-28.64c45.6-89.6 9.44-93.84 4.72-100.4z" fill="#FFB9B9" p-id="10588"></path><path d="M381.12 401.84c-7.84 10.64-11.04 47.04 3.04 57.44 14.08 10.4 33.28 18.16 33.28 18.16l-12.08-78.56c0-0.08-16.4-7.68-24.24 2.96z m355.2-9.12c-2.8-4.08-17.04 2.96-17.04 2.96l-5.68 76.96 19.84-17.76c27.12-55.52 5.6-58.08 2.88-62.16z" fill="#FA959C" p-id="10589"></path><path d="M728.08 381.52c-1.12-10.56-14.88-13.2-21.28-22.32-11.28-16.08-21.28-37.84-28.64-47.76-66.96-90.08-165.76-82.96-219.76-23.92-61.44 67.12-57.36 167.2-57.36 167.2s6.8 121.84 128.96 176.8c0 0 20.08 4.72 42.96 4.8 17.76 0 36.24-3.44 47.76-4.8 24.88-2.8 122.88-104.4 107.36-250z" fill="#FFB9B9" p-id="10590"></path><path d="M728.08 381.52c-1.12-10.56-14.88-13.2-21.28-22.32-11.28-16.08-21.28-37.84-28.64-47.76-66.96-90.08-165.76-82.96-219.76-23.92-61.44 67.12-57.36 167.2-57.36 167.2s6.8 121.84 128.96 176.8c0 0 20.08 4.72 42.96 4.8 17.76 0 36.24-3.44 47.76-4.8 24.88-2.8 122.88-104.4 107.36-250z" fill="#FFB9B9" p-id="10591"></path><path d="M486.72 448.72c-14.48 0-26.32 5.36-26.32 11.92s11.76 11.92 26.32 11.92 26.32-5.36 26.32-11.92-11.84-11.92-26.32-11.92z m200.56 0c-14.48 0-26.32 5.36-26.32 11.92s11.76 11.92 26.32 11.92 26.32-5.36 26.32-11.92-11.76-11.92-26.32-11.92z" fill="#FD9EA3" p-id="10592"></path><path d="M694.48 365.84c-1.2 0-2.4-0.56-3.2-1.6-18.24-23.92-45.84-4.08-46.96-3.2-1.76 1.28-4.32 0.96-5.6-0.88a3.984 3.984 0 0 1 0.88-5.6c12.08-8.88 39.68-19.28 58.08 4.8 1.36 1.76 0.96 4.24-0.72 5.6-0.72 0.64-1.6 0.88-2.48 0.88zM542.48 365.84c-1.2 0-2.4-0.56-3.2-1.6-18.24-23.92-45.84-4.08-46.96-3.2-1.76 1.28-4.32 0.96-5.6-0.88a3.984 3.984 0 0 1 0.88-5.6c12.08-8.88 39.76-19.28 58.08 4.8 1.36 1.76 0.96 4.24-0.72 5.6-0.72 0.64-1.6 0.88-2.48 0.88z" fill="#603813" p-id="10593"></path><path d="M515.36 391.44c-9.2 0-16.72 10.72-16.72 23.84 0 13.2 7.52 23.84 16.72 23.84s16.72-10.72 16.72-23.84-7.44-23.84-16.72-23.84z m152.88 0c-9.2 0-16.72 10.72-16.72 23.84 0 13.2 7.52 23.84 16.72 23.84s16.72-10.72 16.72-23.84-7.44-23.84-16.72-23.84z" fill="#42210B" p-id="10594"></path><path d="M591.52 475.52c-1.12 0-2.32-0.48-3.12-1.44a4.024 4.024 0 0 1 0.56-5.6c2.16-1.76 10.4-12.8 17.52-22.64l-12.4 0.32c-0.88 0-2.16-0.4-2.96-1.2s-1.2-1.84-1.12-2.96l0.88-26.72c0.08-2.16 1.84-3.84 4-3.84h0.16c2.24 0.08 3.92 1.92 3.84 4.16l-0.72 22.48 16.16-0.4c1.12-0.08 2.88 0.8 3.6 2.08 0.72 1.36 0.64 2.96-0.24 4.16-3.2 4.48-19.2 27.12-23.6 30.72-0.72 0.56-1.6 0.88-2.56 0.88z" fill="#603813" p-id="10595"></path><path d="M638.08 505.76H528.08c-0.72 3.12-1.12 6.32-1.12 9.52 0 26.4 25.12 47.76 56.08 47.76s56.08-21.36 56.08-47.76c0.08-3.28-0.32-6.48-1.04-9.52z" fill="#491E4A" p-id="10596"></path><path d="M578 521.28c-19.2-7.6-38.24-8.08-50.88-2.48 1.92 24.88 26.16 44.64 55.92 44.64 12.64 0 24.32-3.6 33.68-9.6-5.76-12.64-19.92-25.12-38.72-32.56z" fill="#FF7B8A" p-id="10597"></path><path d="M622.88 147.76s-98.64-37.76-172 4.8C344.72 214.08 350.4 312.16 350.56 338.88c0.32 57.28 57.36 114.64 57.36 114.64s-3.84-43.52 47.76-71.68c60.48-33.04 111.2-1.36 210.24-114.64 43.36-49.68-43.04-119.44-43.04-119.44z" fill="#772C5A" p-id="10598"></path><path d="M884.96 813.92c-3.6-4.56-7.2-8.96-11.04-12.72-86-84.56-229.6-113.44-229.6-113.44l-228.96-4.48S219.92 743.2 163.92 777.92c-10.24 6.32-19.68 17.52-28.32 31.68 58.96 74.48 139.44 131.04 232.08 160.24 0.88 0.24 1.76 0.56 2.64 0.88 4.96 1.52 9.92 2.88 14.88 4.24a444.88 444.88 0 0 0 22.24 5.52c6.8 1.52 13.6 2.88 20.48 4.08 1.52 0.24 3.04 0.56 4.64 0.8 7.68 1.28 15.44 2.32 23.2 3.28l3.84 0.48c6.64 0.72 13.36 1.2 20.08 1.68 10.64 0.72 21.44 1.2 32.24 1.2 150.72-0.08 285.04-69.52 373.04-178.08z" fill="#F85A79" p-id="10599"></path><path d="M712.88 707.12c-5.44 18.96-18.32 60.56-37.52 104.72-31.92 73.44-109.84 90.8-109.84 90.8-52.96-14.48-100.8-46.32-133.76-81.2-49.76-52.56-72.64-110.88-75.92-119.68-11.84 3.92-24.88 8.24-38.4 12.88 13.6 40.64 49.28 125.44 122.96 177.44 67.44 47.6 134.24 58.72 134.24 58.72s147.92-64.72 166.08-232.88c-9.6-4.16-18.96-7.68-27.84-10.8z" fill="#DF4E6D" p-id="10600"></path><path d="M643.92 687.04l-228.24-4.48s-25.04 7.68-59.76 19.12c3.28 8.8 26.16 67.12 75.92 119.68 32.96 34.88 80.8 66.72 133.76 81.2 0 0 77.92-17.28 109.84-90.8 19.2-44.16 32.08-85.76 37.52-104.72-39.92-14.08-69.04-20-69.04-20z" fill="#FFFFFF" p-id="10601"></path><path d="M594.16 830.88l9.6-90.72-78.8-0.48 2.32 29.12 19.12 62.08-4.8 64.16 33.44 12.32 33.44-21.92z" fill="#8D386E" p-id="10602"></path><path d="M872.8 800.16c-3.52-3.44-7.12-6.72-10.8-10 0.4 13.44 0.88 30.24 1.44 48.64 7.36-7.92 14.56-16.16 21.36-24.56-3.84-5.12-7.76-10-12-14.08z" fill="#DF516D" p-id="10603"></path><path d="M414.64 714.24c-2.72-12.56-3.6-19.92-3.52-24.16l-1.2 0.24s-8-8.8 0 28.64 57.2 59.68 100.32 57.36c26.8-1.44 41.68-12.16 49.52-21.04-8.64 7.6-22.64 15.12-44.72 16.32-43.12 2.32-92.4-19.92-100.4-57.36z m214.96 52.56c-61.36-13.2-59.44-26.88-59.04-27.92-0.16 0.4-0.88 2.88-3.2 7.04-1.12 2 12.32 15.92 57.44 25.68 20.64 4.48 34-1.52 42.48-11.68-8.4 7.12-20.48 10.56-37.68 6.88z" fill="#E5E5E5" p-id="10604"></path><path d="M684.96 697.12s-56.88-22.48-63.36-14.32-1.04 38.16-65.68 47.76c-64.64 9.6-105.12-51.92-105.12-51.92l-35.52 4.56s-10.72-4.4-2.72 33.04 57.2 59.68 100.32 57.36c46.96-2.56 57.36-33.44 57.36-33.44s-6.32 14.96 57.36 28.64c63.68 13.76 57.36-71.68 57.36-71.68z" fill="#FFFDFF" p-id="10605"></path><path d="M618.08 683.12V632s-27.28 2.4-62.08 0.24c-0.64 0-10.24-0.32-10.88-0.4-42.72-4.16-84.72-49.12-84.72-49.12l-9.52 105.6s86.96 77.36 156.56 34.16c24.64-15.28 10.64-39.36 10.64-39.36z" fill="#FFA3A1" p-id="10606"></path></svg>