<?xml version="1.0" standalone="no"?><!DOCTYPE svg PUBLIC "-//W3C//DTD SVG 1.1//EN" "http://www.w3.org/Graphics/SVG/1.1/DTD/svg11.dtd"><svg t="1557757529737" class="icon" style="" viewBox="0 0 1024 1024" version="1.1" xmlns="http://www.w3.org/2000/svg" p-id="8708" xmlns:xlink="http://www.w3.org/1999/xlink" width="200" height="200"><defs><style type="text/css"></style></defs><path d="M249.764788 0.712596h518.769659v239.43215H249.764788z" fill="#8F1D3D" p-id="8709"></path><path d="M249.764788 80.523312h518.769659v79.810717H249.764788z" fill="#AFAEAE" p-id="8710"></path><path d="M249.764788 1.425191l-5.700766 4.275574C211.284621 49.169102 164.965901 111.877523 125.060543 165.322199l217.341684 331.356994 180.999304-81.235908L249.764788 1.425191z" fill="#FC4747" p-id="8711"></path><path d="M209.146834 53.444676C195.607516 71.972164 182.068198 90.499652 167.816284 109.02714l236.581767 359.860821 60.570634-27.078636L209.146834 53.444676z" fill="#FFFFFF" p-id="8712"></path><path d="M770.672234 1.425191l8.551148 4.275574c32.779402 44.180932 79.098121 106.176757 119.00348 159.621434L680.885177 496.679193 499.885873 415.443285 770.672234 1.425191z" fill="#FC4747" p-id="8713"></path><path d="M814.140571 53.444676c13.539318 18.527488 27.078636 37.054976 41.330549 55.582464L619.601949 469.600557l-60.570634-27.078636L814.140571 53.444676z" fill="#FFFFFF" p-id="8714"></path><path d="M814.140571 53.444676c13.539318 18.527488 27.078636 37.054976 41.330549 55.582464L619.601949 469.600557l-60.570634-27.078636L814.140571 53.444676z" fill="#FFFFFF" p-id="8715"></path><path d="M736.467641 411.167711l5.700765-8.551149C692.999304 358.43563 631.716075 327.794015 562.594294 318.530271l-8.551149 12.826723c69.121781 7.838553 132.542797 36.34238 182.424496 79.810717" fill="#174A7A" p-id="8716"></path><path d="M683.022965 373.400139l6.413361-10.688935c-19.240084-11.401531-39.192763-20.665275-59.858038-28.503828l-7.125957 11.401531c20.665275 7.125957 40.617954 17.102296 60.570634 27.791232" fill="#AFAEAE" p-id="8717"></path><path d="M286.107168 411.167711c50.594294-43.468337 112.590118-71.972164 182.424495-79.810717L459.980515 318.530271c-67.69659 10.688935-130.40501 39.905358-178.861517 84.086291l4.98817 8.551149z" fill="#174A7A" p-id="8718"></path><path d="M339.551844 373.400139c19.240084-11.401531 39.905358-19.952679 60.570633-27.078636l-7.125956-11.401531c-20.665275 7.125957-40.617954 17.102296-59.858038 28.503828 0.712596 0 6.413361 9.97634 6.413361 9.976339" fill="#AFAEAE" p-id="8719"></path><path d="M164.253305 675.54071c0 191.688239 156.058455 347.746695 347.746695 347.746694s347.746695-156.058455 347.746695-347.746694S702.975644 327.794015 511.287404 327.794015 164.253305 483.85247 164.253305 675.54071" fill="#FCBF44" p-id="8720"></path><path d="M236.22547 675.54071c0 152.495477 123.991649 275.77453 275.77453 275.77453S787.77453 827.323591 787.77453 675.54071c0-152.495477-123.991649-275.77453-275.77453-275.77453S236.22547 523.045233 236.22547 675.54071" fill="#F9D710" p-id="8721"></path><path d="M511.287404 412.592902c150.35769 0 272.211552 119.716075 275.774531 269.361169v-6.413361c0-152.495477-123.991649-275.77453-275.774531-275.77453-152.495477 0-275.77453 123.991649-275.77453 275.77453v6.413361c3.562978-149.645094 126.129436-269.361169 275.77453-269.361169" fill="#ABAFC6" p-id="8722"></path><path d="M742.168406 402.616562l-5.700765 8.551149c73.397356 61.995825 119.716075 153.920668 121.853862 257.959638v-7.125957c0.712596-104.03897-44.180932-196.676409-116.153097-259.38483m-461.049408 0c-71.259569 64.133612-116.865692 156.771051-116.865693 259.38483v7.125957c2.137787-103.326374 48.456507-194.538622 121.853863-257.959638l-4.98817-8.551149zM511.287404 313.542102c-17.814892 0-34.917189 1.425191-52.019485 4.275574l8.551149 12.826722c28.503827-2.850383 57.720251-2.850383 86.224077 0l8.551149-12.826722c-16.389701-2.850383-34.204593-4.275574-51.30689-4.275574" fill="#AFAEAE" p-id="8723"></path><path d="M482.783577 844.425887v-228.030619h-64.133612v-42.755741h5.700766c42.755741 0 69.121781-16.389701 75.535142-52.019485h48.456507v322.805845h-65.558803z" fill="#ABAFC6" p-id="8724"></path><path d="M482.783577 831.599165v-228.030619h-64.133612v-42.755742h5.700766c42.755741 0 69.121781-16.389701 75.535142-52.019485h48.456507v322.805846h-65.558803z" fill="#FFFFFF" p-id="8725"></path></svg>