<?xml version="1.0" standalone="no"?><!DOCTYPE svg PUBLIC "-//W3C//DTD SVG 1.1//EN" "http://www.w3.org/Graphics/SVG/1.1/DTD/svg11.dtd"><svg t="1557757587304" class="icon" style="" viewBox="0 0 1024 1024" version="1.1" xmlns="http://www.w3.org/2000/svg" p-id="10481" xmlns:xlink="http://www.w3.org/1999/xlink" width="200" height="200"><defs><style type="text/css"></style></defs><path d="M260 0h520v240H260z" fill="#205046" p-id="10482"></path><path d="M260 80h520v80H260z" fill="#AFAEAE" p-id="10483"></path><path d="M259.872 0.76l-5.29 3.94c-32.798 44.398-78.88 106.626-119.042 160.31l217.75 332.228 181.72-81.954L259.872 0.76z" fill="#21A491" p-id="10484"></path><path d="M218.974 52.84c-13.334 18.002-27.472 37.06-41.67 56.158l236.56 360.924 60.574-27.316L218.974 52.84z" fill="#FFFFFF" p-id="10485"></path><path d="M781.27 0.76l8.736 3.94c32.796 44.398 78.88 106.626 119.042 160.31L691.298 497.238l-181.72-81.954L781.27 0.76z" fill="#21A491" p-id="10486"></path><path d="M825.614 52.84c13.336 18.002 27.47 37.06 41.672 56.158L630.722 469.922l-60.572-27.316L825.614 52.84z" fill="#FFFFFF" p-id="10487"></path><path d="M825.614 52.84c13.336 18.002 27.47 37.06 41.672 56.158L630.722 469.922l-60.572-27.316L825.614 52.84z" fill="#FFFFFF" p-id="10488"></path><path d="M747.834 410.98l5.832-8.898c-49.452-44.05-111.542-74.202-180.166-84.324l-8.426 12.856c69.27 8.492 132.246 37.33 182.76 80.366z" fill="#205046" p-id="10489"></path><path d="M694.054 373.294l6.628-10.116a346.32 346.32 0 0 0-59.838-28.436l-7.458 11.382a346.016 346.016 0 0 1 60.668 27.17z" fill="#AFAEAE" p-id="10490"></path><path d="M296.754 410.98c50.356-42.902 113.092-71.698 182.104-80.292l-8.514-12.826c-68.33 10.228-130.15 40.328-179.422 84.218l5.832 8.9z" fill="#205046" p-id="10491"></path><path d="M350.532 373.294a346.09 346.09 0 0 1 60.668-27.172l-7.458-11.38a346.18 346.18 0 0 0-59.838 28.438l6.628 10.114z" fill="#AFAEAE" p-id="10492"></path><path d="M522.294 676m-348 0a348 348 0 1 0 696 0 348 348 0 1 0-696 0Z" fill="#F4AB8E" p-id="10493"></path><path d="M522.294 676m-276.08 0a276.08 276.08 0 1 0 552.16 0 276.08 276.08 0 1 0-552.16 0Z" fill="#DB9076" p-id="10494"></path><path d="M522.294 412.73c150.334 0 272.592 120.158 275.996 269.674 0.048-2.13 0.082-4.264 0.082-6.404 0-152.474-123.604-276.08-276.078-276.08-152.476 0-276.08 123.606-276.08 276.08 0 2.14 0.032 4.274 0.082 6.404 3.404-149.516 125.664-269.674 275.998-269.674z" fill="#BF7D68" p-id="10495"></path><path d="M753.666 402.082l-5.832 8.898c73.272 62.426 120.33 154.704 122.372 258.02 0.044-2.33 0.088-4.66 0.088-7-0.002-103.362-45.08-196.18-116.628-259.918zM290.922 402.082C219.374 465.82 174.294 558.638 174.294 662c0 2.34 0.042 4.67 0.088 7 2.04-103.316 49.1-195.594 122.372-258.02l-5.832-8.898zM522.294 314c-17.654 0-35 1.326-51.95 3.864l8.514 12.826a351.596 351.596 0 0 1 86.216-0.074l8.426-12.856a350.576 350.576 0 0 0-51.206-3.76z" fill="#AFAEAE" p-id="10496"></path><path d="M408.918 761.968h71.906c1.21 30.738 14.75 47.332 40.562 49.782 25.812-1.21 39.928-17.804 42.406-49.782-1.238-36.876-27.656-54.68-79.282-53.468v-46.094c52.834 0 79.282-17.2 79.282-51.626-1.238-28.262-14.75-43.012-40.562-44.25-23.364 3.688-36.27 18.438-38.718 44.25h-71.906c2.45-59 39.324-89.71 110.626-92.188 68.824 7.376 105.7 35.032 110.626 82.968-2.478 44.25-23.364 71.3-62.688 81.126 41.772 13.54 63.292 43.04 64.532 88.5-7.376 51.626-46.094 79.914-116.156 84.812-74.992 0.002-111.866-31.342-110.628-94.03z" fill="#BF7D68" p-id="10497"></path><path d="M408.918 750.672h71.906c1.21 30.738 14.75 47.332 40.562 49.782 25.812-1.21 39.928-17.804 42.406-49.782-1.238-36.876-27.656-54.68-79.282-53.468v-46.094c52.834 0 79.282-17.2 79.282-51.626-1.238-28.262-14.75-43.012-40.562-44.25-23.364 3.688-36.27 18.438-38.718 44.25h-71.906c2.45-59 39.324-89.71 110.626-92.188 68.824 7.376 105.7 35.032 110.626 82.968-2.478 44.25-23.364 71.3-62.688 81.126 41.772 13.54 63.292 43.04 64.532 88.5-7.376 51.626-46.094 79.914-116.156 84.812-74.992 0.002-111.866-31.342-110.628-94.03z" fill="#FFFFFF" p-id="10498"></path></svg>